<svg width="329" height="42" viewBox="0 0 329 42" fill="none" xmlns="http://www.w3.org/2000/svg">
<path d="M21 24.8974C18.6987 24.8974 16.8333 23.032 16.8333 20.7308C16.8333 18.4295 18.6987 16.5641 21 16.5641C23.3012 16.5641 25.1666 18.4295 25.1666 20.7308C25.1666 23.032 23.3012 24.8974 21 24.8974Z" fill="#E11D48"/>
<path d="M36 24.8974C33.6987 24.8974 31.8333 23.032 31.8333 20.7308C31.8333 18.4295 33.6987 16.5641 36 16.5641C38.3012 16.5641 40.1666 18.4295 40.1666 20.7308C40.1666 23.032 38.3012 24.8974 36 24.8974Z" fill="#FBBF24"/>
<path d="M51 24.8974C48.6987 24.8974 46.8333 23.032 46.8333 20.7308C46.8333 18.4295 48.6987 16.5641 51 16.5641C53.3012 16.5641 55.1666 18.4295 55.1666 20.7308C55.1666 23.032 53.3012 24.8974 51 24.8974Z" fill="#22C55E"/>
</svg>
